<svg xmlns="http://www.w3.org/2000/svg" width="158.8" height="35.454" viewBox="0 0 158.8 35.454">
  <g id="Shapes">
    <rect width="158.8" height="35.454" rx="3" fill="#0065b3"/>
    <g>
      <polygon points="11.898 28.72 33.809 28.72 22.011 8.281 18.427 18.146 25.311 26.361 11.898 28.72" fill="#f2f2f3"/>
      <polygon points="21.071 6.72 12.643 13.799 5.422 26.307 11.934 26.307 11.934 26.325 21.071 6.72" fill="#f2f2f3"/>
    </g>
  </g>
  <g id="Text">
    <g>
      <path d="M41.2,23V12.5h3.721q5.6,0,5.6,5.12a5.176,5.176,0,0,1-1.528,3.919A5.63,5.63,0,0,1,44.922,23Zm2.365-8.576v6.657h1.172a3.168,3.168,0,0,0,2.414-.922,3.506,3.506,0,0,0,.875-2.513,3.171,3.171,0,0,0-.868-2.361,3.305,3.305,0,0,0-2.434-.861Z" fill="#f2f2f3"/>
      <path d="M55.6,23.186a4.031,4.031,0,0,1-2.949-1.051,3.809,3.809,0,0,1-1.073-2.852,3.808,3.808,0,0,1,1.113-2.911A4.207,4.207,0,0,1,55.7,15.32a3.982,3.982,0,0,1,2.93,1.052,3.733,3.733,0,0,1,1.062,2.779A3.967,3.967,0,0,1,58.6,22.1,4.078,4.078,0,0,1,55.6,23.186Zm.058-6.093a1.544,1.544,0,0,0-1.275.564,2.484,2.484,0,0,0-.453,1.6q0,2.161,1.742,2.161,1.662,0,1.663-2.219Q57.333,17.092,55.656,17.093Z" fill="#f2f2f3"/>
      <path d="M66.866,22.732a4.575,4.575,0,0,1-2.263.454,3.828,3.828,0,0,1-2.8-1.047,3.617,3.617,0,0,1-1.07-2.7,3.985,3.985,0,0,1,1.147-3.014,4.237,4.237,0,0,1,3.064-1.1,3.93,3.93,0,0,1,1.92.352v1.963a2.636,2.636,0,0,0-1.619-.542,2.132,2.132,0,0,0-1.578.582,2.169,2.169,0,0,0-.582,1.608,2.127,2.127,0,0,0,.557,1.563,2.039,2.039,0,0,0,1.53.568,3.061,3.061,0,0,0,1.692-.542Z" fill="#f2f2f3"/>
      <path d="M75.588,23H73.28V21.861h-.036a2.616,2.616,0,0,1-2.292,1.325q-2.609,0-2.607-3.156V15.5h2.306v4.322q0,1.588,1.26,1.589a1.245,1.245,0,0,0,1-.436A1.757,1.757,0,0,0,73.28,19.8V15.5h2.308Z" fill="#f2f2f3"/>
      <path d="M89.389,23H87.082V18.726q0-1.633-1.2-1.633a1.1,1.1,0,0,0-.93.49,2.015,2.015,0,0,0-.359,1.224V23H82.277V18.682q0-1.59-1.179-1.589a1.134,1.134,0,0,0-.949.468,2.071,2.071,0,0,0-.354,1.275V23H77.48V15.5H79.8v1.172h.029a2.846,2.846,0,0,1,2.424-1.355,2.162,2.162,0,0,1,2.176,1.4,2.773,2.773,0,0,1,2.519-1.4q2.445,0,2.446,3.018Z" fill="#f2f2f3"/>
      <path d="M97.979,19.913H93.087q.115,1.632,2.058,1.633a4.011,4.011,0,0,0,2.174-.586v1.67a5.711,5.711,0,0,1-2.7.556A3.8,3.8,0,0,1,91.8,22.179a3.8,3.8,0,0,1-1-2.808,4.01,4.01,0,0,1,1.084-2.959,3.61,3.61,0,0,1,2.666-1.092,3.28,3.28,0,0,1,2.538.974,3.753,3.753,0,0,1,.9,2.644Zm-2.146-1.421q0-1.613-1.3-1.612a1.244,1.244,0,0,0-.963.462,2.1,2.1,0,0,0-.5,1.15Z" fill="#f2f2f3"/>
      <path d="M106.681,23h-2.308V18.836q0-1.743-1.244-1.743a1.235,1.235,0,0,0-.989.461,1.757,1.757,0,0,0-.388,1.172V23H99.438V15.5h2.314V16.69h.029a2.652,2.652,0,0,1,2.409-1.37q2.492,0,2.491,3.091Z" fill="#f2f2f3"/>
      <path d="M112.945,22.915a3.413,3.413,0,0,1-1.545.271q-2.447,0-2.447-2.541V17.21h-1.215V15.5h1.215V13.885l2.308-.659V15.5h1.684V17.21h-1.684v3.032q0,1.171.93,1.172a1.571,1.571,0,0,0,.754-.212Z" fill="#f2f2f3"/>
      <path d="M120.635,23h-2.191V21.927h-.029a2.443,2.443,0,0,1-2.233,1.259,2.337,2.337,0,0,1-1.718-.618,2.218,2.218,0,0,1-.626-1.652q0-2.183,2.585-2.52l2.036-.271q0-1.23-1.333-1.23a4.552,4.552,0,0,0-2.549.8V15.95a5.736,5.736,0,0,1,1.322-.439,6.948,6.948,0,0,1,1.527-.191q3.207,0,3.209,3.2Zm-2.176-3.047v-.5l-1.362.176q-1.128.147-1.128,1.018a.844.844,0,0,0,.274.648,1.059,1.059,0,0,0,.743.253,1.371,1.371,0,0,0,1.063-.451A1.629,1.629,0,0,0,118.459,19.956Z" fill="#f2f2f3"/>
      <path d="M126.875,22.915a3.416,3.416,0,0,1-1.545.271q-2.448,0-2.447-2.541V17.21h-1.215V15.5h1.215V13.885l2.307-.659V15.5h1.685V17.21H125.19v3.032q0,1.171.931,1.172a1.577,1.577,0,0,0,.754-.212Z" fill="#f2f2f3"/>
      <path d="M129.42,14.317a1.351,1.351,0,0,1-.96-.348,1.121,1.121,0,0,1-.374-.853,1.082,1.082,0,0,1,.374-.85,1.566,1.566,0,0,1,1.923,0,1.088,1.088,0,0,1,.369.85,1.119,1.119,0,0,1-.369.864A1.376,1.376,0,0,1,129.42,14.317ZM130.562,23h-2.314V15.5h2.314Z" fill="#f2f2f3"/>
      <path d="M136.034,23.186a4.028,4.028,0,0,1-2.948-1.051,3.805,3.805,0,0,1-1.073-2.852,3.808,3.808,0,0,1,1.113-2.911,4.2,4.2,0,0,1,3.01-1.052,3.979,3.979,0,0,1,2.929,1.052,3.733,3.733,0,0,1,1.063,2.779,3.963,3.963,0,0,1-1.095,2.951A4.075,4.075,0,0,1,136.034,23.186Zm.059-6.093a1.546,1.546,0,0,0-1.276.564,2.49,2.49,0,0,0-.453,1.6q0,2.161,1.742,2.161,1.663,0,1.664-2.219Q137.77,17.092,136.093,17.093Z" fill="#f2f2f3"/>
      <path d="M148.846,23h-2.308V18.836q0-1.743-1.244-1.743a1.235,1.235,0,0,0-.989.461,1.757,1.757,0,0,0-.388,1.172V23H141.6V15.5h2.314V16.69h.029a2.652,2.652,0,0,1,2.409-1.37q2.492,0,2.491,3.091Z" fill="#f2f2f3"/>
    </g>
  </g>
</svg>
