<svg xmlns="http://www.w3.org/2000/svg" width="150" height="35.454" viewBox="0 0 150 35.454">
  <g id="Shapes">
    <rect width="150" height="35.454" rx="3" fill="#0065b3"/>
    <g>
      <polygon points="11.898 28.72 33.809 28.72 22.011 8.281 18.427 18.146 25.311 26.361 11.898 28.72" fill="#f2f2f3"/>
      <polygon points="21.071 6.72 12.643 13.799 5.422 26.307 11.934 26.307 11.934 26.325 21.071 6.72" fill="#f2f2f3"/>
    </g>
  </g>
  <g id="Text">
    <g>
      <path d="M50.291,22H47.918V17.723H43.566V22H41.2V11.5h2.365v4.189h4.352V11.5h2.373Z" fill="#f2f2f3"/>
      <path d="M55.978,22.183a4.031,4.031,0,0,1-2.949-1.051,3.808,3.808,0,0,1-1.073-2.853,3.811,3.811,0,0,1,1.113-2.911,4.205,4.205,0,0,1,3.01-1.051,3.981,3.981,0,0,1,2.93,1.051,3.736,3.736,0,0,1,1.062,2.779A3.971,3.971,0,0,1,58.977,21.1,4.078,4.078,0,0,1,55.978,22.183Zm.058-6.094a1.542,1.542,0,0,0-1.275.564,2.485,2.485,0,0,0-.453,1.6q0,2.16,1.742,2.161,1.662,0,1.663-2.22Q57.713,16.09,56.036,16.089Z" fill="#f2f2f3"/>
      <path d="M72.258,14.5,70.1,22H67.666L66.56,17.605a4.315,4.315,0,0,1-.124-.959h-.045a5.757,5.757,0,0,1-.147.93L65.059,22h-2.4l-2.117-7.5H62.9l1.033,4.892a6.277,6.277,0,0,1,.11.835h.044a4.562,4.562,0,0,1,.132-.864L65.505,14.5h2.2l1.158,4.892a7.956,7.956,0,0,1,.1.85h.052a8.3,8.3,0,0,1,.117-.85l.973-4.892Z" fill="#f2f2f3"/>
      <path d="M77.089,18.807H73.082V17.188h4.007Z" fill="#f2f2f3"/>
      <path d="M83.133,21.912a3.419,3.419,0,0,1-1.545.271q-2.448,0-2.447-2.541V16.206H77.926V14.5h1.215V12.881l2.307-.659V14.5h1.685v1.706H81.448v3.033q0,1.171.931,1.172a1.567,1.567,0,0,0,.754-.213Z" fill="#f2f2f3"/>
      <path d="M87.985,22.183a4.028,4.028,0,0,1-2.948-1.051,3.808,3.808,0,0,1-1.073-2.853,3.811,3.811,0,0,1,1.113-2.911,4.2,4.2,0,0,1,3.01-1.051,3.981,3.981,0,0,1,2.93,1.051,3.736,3.736,0,0,1,1.062,2.779A3.967,3.967,0,0,1,90.984,21.1,4.075,4.075,0,0,1,87.985,22.183Zm.059-6.094a1.542,1.542,0,0,0-1.275.564,2.485,2.485,0,0,0-.454,1.6q0,2.16,1.743,2.161,1.662,0,1.663-2.22Q89.721,16.09,88.044,16.089Z" fill="#f2f2f3"/>
      <path d="M105.072,21.143a4.244,4.244,0,0,1-1.209,3.234,4.9,4.9,0,0,1-3.5,1.146,5.552,5.552,0,0,1-2.4-.432V23.142a4.591,4.591,0,0,0,2.337.674,2.516,2.516,0,0,0,1.816-.619,2.221,2.221,0,0,0,.645-1.68v-.594h-.029a2.587,2.587,0,0,1-2.337,1.26,2.813,2.813,0,0,1-2.279-1.011,4.1,4.1,0,0,1-.842-2.71,4.567,4.567,0,0,1,.938-3.025,3.06,3.06,0,0,1,2.469-1.12,2.281,2.281,0,0,1,2.051,1.054h.029V14.5h2.314ZM102.787,18.4V17.8a1.822,1.822,0,0,0-.422-1.212,1.361,1.361,0,0,0-1.094-.5,1.415,1.415,0,0,0-1.209.6,2.83,2.83,0,0,0-.439,1.692,2.386,2.386,0,0,0,.417,1.483,1.36,1.36,0,0,0,1.143.546,1.418,1.418,0,0,0,1.161-.554A2.267,2.267,0,0,0,102.787,18.4Z" fill="#f2f2f3"/>
      <path d="M114.123,22h-2.308V20.857h-.036a2.617,2.617,0,0,1-2.292,1.326q-2.608,0-2.607-3.157V14.5h2.307v4.321q0,1.59,1.259,1.59a1.245,1.245,0,0,0,1-.436,1.759,1.759,0,0,0,.373-1.183V14.5h2.308Z" fill="#f2f2f3"/>
      <path d="M117.188,13.313a1.349,1.349,0,0,1-.959-.347,1.12,1.12,0,0,1-.375-.854,1.078,1.078,0,0,1,.375-.849,1.564,1.564,0,0,1,1.922,0,1.087,1.087,0,0,1,.37.849,1.116,1.116,0,0,1-.37.864A1.374,1.374,0,0,1,117.188,13.313ZM118.331,22h-2.314V14.5h2.314Z" fill="#f2f2f3"/>
      <path d="M127.6,22H125.28V20.967h-.029a2.593,2.593,0,0,1-2.321,1.216,2.84,2.84,0,0,1-2.263-.993,4.1,4.1,0,0,1-.857-2.772,4.466,4.466,0,0,1,.945-2.981,3.078,3.078,0,0,1,2.474-1.12,2.105,2.105,0,0,1,2.022,1.04h.029V10.9H127.6Zm-2.27-3.648v-.564a1.77,1.77,0,0,0-.426-1.215,1.5,1.5,0,0,0-2.306.12,2.81,2.81,0,0,0-.432,1.659,2.431,2.431,0,0,0,.417,1.524,1.482,1.482,0,0,0,2.3-.029A2.354,2.354,0,0,0,125.325,18.352Z" fill="#f2f2f3"/>
      <path d="M136.273,18.909h-4.892q.115,1.634,2.057,1.633a4.012,4.012,0,0,0,2.175-.586v1.67a5.71,5.71,0,0,1-2.7.557,3.8,3.8,0,0,1-2.819-1.007,3.8,3.8,0,0,1-1-2.809,4.013,4.013,0,0,1,1.084-2.959,3.613,3.613,0,0,1,2.666-1.091,3.28,3.28,0,0,1,2.538.974,3.752,3.752,0,0,1,.9,2.644Zm-2.146-1.421q0-1.611-1.3-1.611a1.246,1.246,0,0,0-.963.461,2.1,2.1,0,0,0-.5,1.15Z" fill="#f2f2f3"/>
    </g>
  </g>
</svg>
