<svg xmlns="http://www.w3.org/2000/svg" width="128" height="35.454" viewBox="0 0 128 35.454">
  <g id="Shapes">
    <rect width="128" height="35.454" rx="3" fill="#0065b3"/>
    <g>
      <polygon points="11.898 28.72 33.809 28.72 22.011 8.281 18.427 18.146 25.311 26.361 11.898 28.72" fill="#f2f2f3"/>
      <polygon points="21.071 6.72 12.643 13.799 5.422 26.307 11.934 26.307 11.934 26.325 21.071 6.72" fill="#f2f2f3"/>
    </g>
  </g>
  <g id="Text">
    <g>
      <path d="M45.64,22.683a4.894,4.894,0,0,1-3.677-1.465,5.3,5.3,0,0,1-1.421-3.831,5.664,5.664,0,0,1,1.442-4.028,4.984,4.984,0,0,1,3.825-1.538,4.757,4.757,0,0,1,3.632,1.472,5.408,5.408,0,0,1,1.391,3.882,5.566,5.566,0,0,1-1.442,3.992c-.035.034-.066.067-.095.1a.93.93,0,0,1-.1.092l2.658,2.556h-3.31L47.156,22.5A5.9,5.9,0,0,1,45.64,22.683Zm.1-8.826a2.39,2.39,0,0,0-1.977.938,3.874,3.874,0,0,0-.733,2.468,3.816,3.816,0,0,0,.733,2.468,2.345,2.345,0,0,0,1.919.908,2.376,2.376,0,0,0,1.941-.879,3.814,3.814,0,0,0,.717-2.453,4.118,4.118,0,0,0-.7-2.542A2.255,2.255,0,0,0,45.742,13.857Z" fill="#f2f2f3"/>
      <path d="M59.558,22.5H57.25V21.357h-.036a2.617,2.617,0,0,1-2.292,1.326q-2.608,0-2.608-3.157V15h2.307v4.321q0,1.59,1.26,1.589a1.245,1.245,0,0,0,1-.436,1.754,1.754,0,0,0,.373-1.182V15h2.308Z" fill="#f2f2f3"/>
      <path d="M62.623,13.813a1.354,1.354,0,0,1-.96-.347,1.123,1.123,0,0,1-.374-.854,1.082,1.082,0,0,1,.374-.85,1.569,1.569,0,0,1,1.923,0,1.088,1.088,0,0,1,.369.85,1.116,1.116,0,0,1-.369.864A1.374,1.374,0,0,1,62.623,13.813ZM63.766,22.5H61.451V15h2.315Z" fill="#f2f2f3"/>
      <path d="M71.342,22.229a4.593,4.593,0,0,1-2.264.454,3.826,3.826,0,0,1-2.8-1.048,3.616,3.616,0,0,1-1.069-2.7,3.985,3.985,0,0,1,1.146-3.014,4.235,4.235,0,0,1,3.065-1.1,3.947,3.947,0,0,1,1.92.351v1.963a2.646,2.646,0,0,0-1.619-.542,2.127,2.127,0,0,0-1.578.583,2.166,2.166,0,0,0-.583,1.607,2.13,2.13,0,0,0,.557,1.563,2.041,2.041,0,0,0,1.53.568,3.054,3.054,0,0,0,1.693-.542Z" fill="#f2f2f3"/>
      <path d="M80.478,22.5H77.7l-2.394-3.721h-.03V22.5H72.964V11.4h2.314v7.068h.03L77.541,15h2.747L77.6,18.523Z" fill="#f2f2f3"/>
      <path d="M81.179,22.3V20.427a4.985,4.985,0,0,0,1.138.513,3.8,3.8,0,0,0,1.074.168,2.306,2.306,0,0,0,.97-.168.546.546,0,0,0,.356-.513.474.474,0,0,0-.162-.366,1.519,1.519,0,0,0-.413-.257,4.7,4.7,0,0,0-.554-.2q-.3-.089-.578-.2a5.488,5.488,0,0,1-.787-.362,2.279,2.279,0,0,1-.572-.451A1.762,1.762,0,0,1,81.3,18a2.361,2.361,0,0,1-.121-.8,2.066,2.066,0,0,1,.274-1.084,2.262,2.262,0,0,1,.733-.743,3.357,3.357,0,0,1,1.047-.425,5.48,5.48,0,0,1,1.227-.135,6.847,6.847,0,0,1,1.011.076,7.622,7.622,0,0,1,1.01.224V16.9a3.661,3.661,0,0,0-.941-.385,3.989,3.989,0,0,0-.985-.128,2.238,2.238,0,0,0-.428.04,1.473,1.473,0,0,0-.356.118.655.655,0,0,0-.242.2.457.457,0,0,0-.088.274.509.509,0,0,0,.133.352,1.155,1.155,0,0,0,.344.253,3.476,3.476,0,0,0,.473.19q.258.084.515.172a6.634,6.634,0,0,1,.836.352,2.7,2.7,0,0,1,.641.446,1.766,1.766,0,0,1,.41.6,2.4,2.4,0,0,1-.147,1.959,2.308,2.308,0,0,1-.769.769,3.5,3.5,0,0,1-1.106.433,6.217,6.217,0,0,1-1.3.135A6.7,6.7,0,0,1,81.179,22.3Z" fill="#f2f2f3"/>
      <path d="M92.753,22.412a3.43,3.43,0,0,1-1.545.271q-2.448,0-2.447-2.542V16.706H87.546V15h1.215V13.381l2.307-.659V15h1.685v1.706H91.068v3.032q0,1.173.931,1.172a1.566,1.566,0,0,0,.754-.212Z" fill="#f2f2f3"/>
      <path d="M100.442,22.5h-2.19V21.423h-.029a2.445,2.445,0,0,1-2.234,1.26,2.335,2.335,0,0,1-1.718-.619,2.218,2.218,0,0,1-.625-1.652q0-2.182,2.584-2.519l2.037-.271q0-1.232-1.333-1.231a4.543,4.543,0,0,0-2.549.8V15.446a5.719,5.719,0,0,1,1.322-.439,6.934,6.934,0,0,1,1.526-.19q3.208,0,3.209,3.2Zm-2.175-3.047v-.506l-1.363.176q-1.128.147-1.128,1.018a.844.844,0,0,0,.275.649,1.055,1.055,0,0,0,.743.252,1.37,1.37,0,0,0,1.062-.45A1.625,1.625,0,0,0,98.267,19.453Z" fill="#f2f2f3"/>
      <path d="M107.149,17.087a2.013,2.013,0,0,0-.974-.227,1.406,1.406,0,0,0-1.18.553,2.413,2.413,0,0,0-.424,1.5V22.5h-2.314V15h2.314v1.391h.03a2,2,0,0,1,1.976-1.523,1.488,1.488,0,0,1,.572.088Z" fill="#f2f2f3"/>
      <path d="M113.073,22.412a3.43,3.43,0,0,1-1.545.271q-2.448,0-2.447-2.542V16.706h-1.215V15h1.215V13.381l2.308-.659V15h1.684v1.706h-1.684v3.032q0,1.173.93,1.172a1.566,1.566,0,0,0,.754-.212Z" fill="#f2f2f3"/>
    </g>
  </g>
</svg>
