<svg xmlns="http://www.w3.org/2000/svg" width="128" height="35.454" viewBox="0 0 128 35.454">
  <g id="Shapes">
    <rect width="128" height="35.454" rx="3" fill="#0065b3"/>
    <g>
      <polygon points="11.898 28.72 33.809 28.72 22.011 8.281 18.427 18.146 25.311 26.361 11.898 28.72" fill="#f2f2f3"/>
      <polygon points="21.071 6.72 12.643 13.799 5.422 26.307 11.934 26.307 11.934 26.325 21.071 6.72" fill="#f2f2f3"/>
    </g>
  </g>
  <g id="Text">
    <g>
      <path d="M48.576,13.673H45.581V22.25H43.208V13.673H40.227V11.747h8.349Z" fill="#f2f2f3"/>
      <path d="M55.818,22.25H53.511V21.107h-.036a2.618,2.618,0,0,1-2.292,1.326q-2.61,0-2.608-3.157V14.75h2.307v4.321q0,1.59,1.26,1.589a1.245,1.245,0,0,0,1-.436,1.754,1.754,0,0,0,.373-1.182V14.75h2.307Z" fill="#f2f2f3"/>
      <path d="M62.211,22.162a3.416,3.416,0,0,1-1.545.271q-2.448,0-2.447-2.542V16.456H57V14.75h1.215V13.131l2.307-.659V14.75h1.685v1.706H60.526v3.033q0,1.171.931,1.171a1.566,1.566,0,0,0,.754-.212Z" fill="#f2f2f3"/>
      <path d="M67.063,22.433a4.028,4.028,0,0,1-2.948-1.051,3.809,3.809,0,0,1-1.073-2.853,3.811,3.811,0,0,1,1.113-2.911,4.2,4.2,0,0,1,3.01-1.051,3.981,3.981,0,0,1,2.93,1.051A3.736,3.736,0,0,1,71.157,18.4a3.967,3.967,0,0,1-1.095,2.952A4.075,4.075,0,0,1,67.063,22.433Zm.059-6.094a1.542,1.542,0,0,0-1.275.564,2.485,2.485,0,0,0-.453,1.6q0,2.16,1.742,2.16,1.662,0,1.663-2.219Q68.8,16.34,67.122,16.339Z" fill="#f2f2f3"/>
      <path d="M77.526,16.837a2.013,2.013,0,0,0-.974-.227,1.406,1.406,0,0,0-1.18.553,2.413,2.413,0,0,0-.424,1.5V22.25H72.634v-7.5h2.314v1.391h.03a2,2,0,0,1,1.976-1.523,1.488,1.488,0,0,1,.572.088Z" fill="#f2f2f3"/>
      <path d="M79.757,13.563a1.35,1.35,0,0,1-.96-.347,1.123,1.123,0,0,1-.374-.854,1.082,1.082,0,0,1,.374-.85,1.569,1.569,0,0,1,1.923,0,1.088,1.088,0,0,1,.369.85,1.116,1.116,0,0,1-.369.864A1.376,1.376,0,0,1,79.757,13.563ZM80.9,22.25H78.585v-7.5H80.9Z" fill="#f2f2f3"/>
      <path d="M89.07,22.25H86.88V21.173h-.029a2.445,2.445,0,0,1-2.234,1.26,2.335,2.335,0,0,1-1.718-.619,2.215,2.215,0,0,1-.626-1.652q0-2.182,2.585-2.519l2.037-.271q0-1.23-1.333-1.231a4.55,4.55,0,0,0-2.549.8V15.2a5.715,5.715,0,0,1,1.322-.44,6.934,6.934,0,0,1,1.526-.19q3.209,0,3.209,3.2ZM86.9,19.2v-.5l-1.363.175Q84.4,19.02,84.4,19.891a.844.844,0,0,0,.275.649,1.055,1.055,0,0,0,.743.252,1.371,1.371,0,0,0,1.062-.45A1.625,1.625,0,0,0,86.9,19.2Z" fill="#f2f2f3"/>
      <path d="M93.2,22.25H90.883v-11.1H93.2Z" fill="#f2f2f3"/>
    </g>
  </g>
</svg>
